<?xml version="1.0" standalone="no"?>
<!DOCTYPE svg PUBLIC "-//W3C//DTD SVG 20010904//EN"
 "http://www.w3.org/TR/2001/REC-SVG-20010904/DTD/svg10.dtd">
<svg version="1.0" xmlns="http://www.w3.org/2000/svg"
 width="104px" height="72px" viewBox="0 0 104 72"
 preserveAspectRatio="xMidYMid meet">

<g transform="translate(0.000000,358.000000) scale(0.100000,-0.100000)"
fill="#000000" stroke="none">
<path d="M1828 3046 c-96 -26 -160 -98 -166 -188 -4 -51 -8 -60 -37 -83 -73
-55 -67 -142 15 -251 63 -83 63 -83 50 -99 -16 -20 0 -19 27 0 13 9 28 33 34
55 14 45 -3 108 -49 187 -39 66 -43 80 -27 93 11 9 19 3 41 -31 33 -53 54
-102 54 -128 0 -37 22 -35 58 3 33 36 34 41 28 95 -3 31 -8 71 -12 89 -5 27
-3 32 12 32 11 0 25 -10 33 -22 l14 -22 8 21 c5 14 28 28 73 43 68 22 96 48
96 87 0 57 -50 104 -130 122 -56 13 -64 13 -122 -3z"/>
<path d="M1795 2482 c-17 -11 -39 -31 -48 -46 -22 -33 -11 -34 15 -1 26 34 56
48 95 47 48 -2 69 -17 100 -70 23 -39 28 -59 28 -114 0 -58 -4 -72 -30 -110
-47 -66 -100 -74 -167 -26 -15 11 -22 9 -42 -12 l-25 -25 20 -95 c29 -141 37
-209 28 -249 -7 -32 -4 -40 43 -98 l50 -63 47 6 c30 3 61 0 90 -10 24 -9 47
-13 50 -10 3 3 5 76 3 162 -3 182 8 250 47 295 39 45 51 70 51 111 0 29 -7 41
-44 71 -24 19 -70 75 -101 123 -32 48 -69 96 -82 106 -37 27 -92 31 -128 8z"/>
<path d="M1699 1634 c-1 -5 -3 -20 -6 -34 -16 -102 -14 -146 11 -215 l25 -69
-20 -114 c-10 -63 -19 -136 -19 -162 0 -72 -6 -80 -54 -80 -50 0 -172 -29
-273 -66 l-73 -26 0 -44 c0 -51 21 -108 44 -121 16 -9 225 5 411 27 96 12 155
37 187 80 35 48 71 176 114 406 3 20 11 21 196 27 106 4 209 10 228 13 l35 6
0 -119 c0 -133 19 -256 43 -279 20 -20 135 -16 156 6 10 10 18 66 25 180 30
420 21 447 -157 475 -48 8 -138 23 -200 34 -62 12 -158 24 -213 29 -97 8 -102
7 -122 -15 -16 -16 -34 -23 -62 -23 -22 0 -56 -5 -75 -10 -60 -18 -76 -10
-177 83 -13 11 -24 16 -24 11z"/>
<path d="M1004 805 c9 -35 9 -151 1 -208 -10 -64 10 -142 42 -167 17 -13 41
-20 70 -20 51 0 55 18 7 33 -16 5 -35 14 -41 20 -19 14 -16 80 7 144 11 32 20
61 20 65 0 4 -17 8 -37 10 l-38 3 -3 52 c-2 29 2 62 8 73 9 18 8 20 -16 20
-23 0 -25 -3 -20 -25z"/>
<path d="M862 813 c-13 -3 -25 -10 -28 -17 -3 -7 9 -55 25 -107 16 -52 37
-126 46 -166 22 -96 48 -134 105 -150 45 -14 115 -9 126 8 3 5 -19 9 -48 9
-32 0 -62 6 -76 16 -31 21 -58 79 -71 149 -14 77 -14 77 9 70 28 -9 44 35 35
98 -10 79 -22 97 -64 96 -20 -1 -46 -4 -59 -6z"/>
<path d="M2536 645 c-8 -22 -3 -27 54 -49 25 -10 67 -34 95 -53 27 -20 72 -46
101 -59 69 -30 196 -56 209 -43 13 13 -20 39 -50 39 -39 0 -123 50 -176 107
l-53 56 -27 -32 -27 -33 -43 22 c-24 12 -51 31 -60 42 -15 19 -16 19 -23 3z"/>
<path d="M2492 554 c-7 -16 -16 -43 -21 -60 -8 -28 -6 -33 16 -43 13 -6 63
-18 110 -26 47 -8 109 -22 137 -30 89 -27 177 -30 222 -9 l39 19 -95 6 c-129
8 -255 46 -222 67 7 5 10 16 7 24 -9 22 -93 66 -141 74 -38 6 -42 4 -52 -22z"/>
</g>
</svg>
