<?xml version="1.0" standalone="no"?>
<!DOCTYPE svg PUBLIC "-//W3C//DTD SVG 20010904//EN"
 "http://www.w3.org/TR/2001/REC-SVG-20010904/DTD/svg10.dtd">
<svg version="1.0" xmlns="http://www.w3.org/2000/svg"
 width="104px" height="72px" viewBox="0 0 104 72"
 preserveAspectRatio="xMidYMid meet">

<g transform="translate(0.000000,360.000000) scale(0.100000,-0.100000)"
fill="#000000" stroke="none">
<path d="M1385 2430 c-19 -8 -18 -9 4 -9 22 -1 23 -3 9 -18 -8 -10 -29 -44
-47 -75 -18 -32 -47 -69 -64 -83 -24 -18 -27 -25 -14 -25 9 0 17 -2 17 -5 0
-9 -32 -58 -54 -84 -21 -24 -21 -24 -1 -18 17 6 17 4 -4 -13 l-23 -20 26 -34
c35 -47 106 -80 151 -72 19 4 35 9 35 12 0 2 -14 17 -32 33 l-32 28 32 39 c36
44 40 56 15 48 -14 -5 -13 -2 4 13 12 10 37 45 57 79 49 84 57 90 109 75 23
-7 66 -26 96 -42 30 -16 57 -29 60 -29 3 0 6 12 6 26 0 18 -10 34 -30 49 -43
32 -127 77 -132 71 -3 -3 -26 10 -51 29 -46 36 -92 44 -137 25z"/>
<path d="M1533 2178 c-35 -24 -43 -48 -18 -48 16 0 65 46 65 61 0 14 -13 10
-47 -13z"/>
<path d="M1711 2025 c-5 -21 -18 -46 -27 -57 -16 -17 -16 -18 -1 -13 17 7 54
91 44 101 -3 3 -10 -11 -16 -31z"/>
<path d="M1470 2038 c0 -25 12 -58 21 -58 10 0 12 31 3 54 -7 19 -24 21 -24 4z"/>
<path d="M565 1946 c-73 -27 -105 -73 -105 -149 0 -51 10 -78 42 -113 17 -19
18 -25 7 -43 -8 -11 -20 -22 -29 -24 -10 -2 -8 -5 8 -9 12 -3 20 -2 17 2 -12
20 37 38 90 33 29 -3 60 -1 70 5 15 8 23 4 41 -18 19 -22 30 -27 55 -24 18 2
35 6 38 9 3 3 -11 4 -30 2 -30 -3 -38 0 -52 24 -13 23 -13 30 -3 36 28 17 56
78 56 124 0 102 -111 181 -205 145z m123 -26 c96 -59 94 -192 -3 -248 -32 -18
-49 -22 -85 -17 -25 3 -51 6 -58 7 -6 1 -10 3 -7 6 2 3 -6 13 -19 23 -34 27
-49 72 -43 127 4 40 12 53 47 85 36 31 50 37 89 37 28 0 59 -8 79 -20z"/>
<path d="M550 1900 c0 -5 5 -10 11 -10 5 0 7 5 4 10 -3 6 -8 10 -11 10 -2 0
-4 -4 -4 -10z"/>
<path d="M665 1900 c-3 -5 -1 -10 4 -10 6 0 11 5 11 10 0 6 -2 10 -4 10 -3 0
-8 -4 -11 -10z"/>
<path d="M570 1860 c0 -5 5 -10 10 -10 6 0 10 5 10 10 0 6 -4 10 -10 10 -5 0
-10 -4 -10 -10z"/>
<path d="M505 1850 c3 -5 8 -10 11 -10 2 0 4 5 4 10 0 6 -5 10 -11 10 -5 0 -7
-4 -4 -10z"/>
<path d="M710 1849 c0 -5 5 -7 10 -4 6 3 10 8 10 11 0 2 -4 4 -10 4 -5 0 -10
-5 -10 -11z"/>
<path d="M600 1811 c0 -5 5 -13 10 -16 6 -3 10 -2 10 4 0 5 -4 13 -10 16 -5 3
-10 2 -10 -4z"/>
<path d="M490 1800 c0 -5 5 -10 10 -10 6 0 10 5 10 10 0 6 -4 10 -10 10 -5 0
-10 -4 -10 -10z"/>
<path d="M505 1750 c-3 -5 1 -10 10 -10 9 0 13 5 10 10 -3 6 -8 10 -10 10 -2
0 -7 -4 -10 -10z"/>
<path d="M710 1750 c0 -5 5 -10 11 -10 5 0 7 5 4 10 -3 6 -8 10 -11 10 -2 0
-4 -4 -4 -10z"/>
<path d="M621 1725 c0 -12 -6 -26 -13 -33 -9 -9 -9 -12 0 -12 16 0 25 23 19
47 -4 16 -5 15 -6 -2z"/>
<path d="M550 1699 c0 -5 5 -7 10 -4 6 3 10 8 10 11 0 2 -4 4 -10 4 -5 0 -10
-5 -10 -11z"/>
<path d="M670 1699 c0 -5 5 -7 10 -4 6 3 10 8 10 11 0 2 -4 4 -10 4 -5 0 -10
-5 -10 -11z"/>
<path d="M425 1870 c3 -5 8 -10 11 -10 2 0 4 5 4 10 0 6 -5 10 -11 10 -5 0 -7
-4 -4 -10z"/>
<path d="M334 1515 c0 -60 1 -84 3 -52 2 32 2 81 0 110 -2 29 -3 3 -3 -58z"/>
<path d="M540 1612 c0 -4 38 -7 84 -7 46 0 82 3 80 7 -2 3 -40 6 -84 6 -44 0
-80 -3 -80 -6z"/>
<path d="M907 1612 c6 -4 13 -28 16 -52 l4 -45 1 53 c2 44 -1 52 -15 52 -12 0
-14 -3 -6 -8z"/>
<path d="M2980 1580 c8 -5 20 -10 25 -10 6 0 3 5 -5 10 -8 5 -19 10 -25 10 -5
0 -3 -5 5 -10z"/>
<path d="M3200 1496 c0 -2 7 -7 16 -10 8 -3 12 -2 9 4 -6 10 -25 14 -25 6z"/>
<path d="M4265 1460 c-3 -5 -1 -10 4 -10 6 0 11 5 11 10 0 6 -2 10 -4 10 -3 0
-8 -4 -11 -10z"/>
<path d="M3568 1443 c6 -2 18 -2 25 0 6 3 1 5 -13 5 -14 0 -19 -2 -12 -5z"/>
<path d="M825 1430 c3 -5 11 -10 16 -10 6 0 7 5 4 10 -3 6 -11 10 -16 10 -6 0
-7 -4 -4 -10z"/>
<path d="M3277 1429 c7 -7 15 -10 18 -7 3 3 -2 9 -12 12 -14 6 -15 5 -6 -5z"/>
<path d="M872 1418 c-9 -9 -12 -94 -12 -320 l0 -308 25 0 25 0 0 304 c0 193 4
307 10 311 6 3 10 11 10 16 0 6 -7 3 -16 -5 -16 -16 -39 -12 -29 5 8 13 1 11
-13 -3z"/>
<path d="M433 1413 c9 -2 25 -2 35 0 9 3 1 5 -18 5 -19 0 -27 -2 -17 -5z"/>
<path d="M3958 1413 c7 -3 16 -2 19 1 4 3 -2 6 -13 5 -11 0 -14 -3 -6 -6z"/>
<path d="M350 1100 l0 -310 30 0 30 0 0 308 0 308 -30 2 -30 2 0 -310z"/>
<path d="M4148 1403 c7 -3 16 -2 19 1 4 3 -2 6 -13 5 -11 0 -14 -3 -6 -6z"/>
<path d="M4098 1343 c7 -3 16 -2 19 1 4 3 -2 6 -13 5 -11 0 -14 -3 -6 -6z"/>
<path d="M1014 955 c0 -88 2 -123 3 -77 2 46 2 118 0 160 -1 42 -3 5 -3 -83z"/>
<path d="M1124 950 c0 -91 2 -128 3 -82 2 45 2 119 0 165 -1 45 -3 8 -3 -83z"/>
<path d="M4694 955 c0 -88 2 -123 3 -77 2 46 2 118 0 160 -1 42 -3 5 -3 -83z"/>
<path d="M4718 1103 c6 -2 18 -2 25 0 6 3 1 5 -13 5 -14 0 -19 -2 -12 -5z"/>
<path d="M4804 920 c0 -69 1 -97 3 -62 2 34 2 90 0 125 -2 34 -3 6 -3 -63z"/>
</g>
</svg>
