<?xml version="1.0" standalone="no"?>
<!DOCTYPE svg PUBLIC "-//W3C//DTD SVG 20010904//EN"
 "http://www.w3.org/TR/2001/REC-SVG-20010904/DTD/svg10.dtd">
<svg version="1.0" xmlns="http://www.w3.org/2000/svg"
 width="104px" height="72px" viewBox="0 0 104 72"
 preserveAspectRatio="xMidYMid meet">

<g transform="translate(0.000000,626.000000) scale(0.100000,-0.100000)"
fill="#000000" stroke="none">
<path d="M2489 4267 c-54 -36 -59 -56 -59 -225 0 -117 4 -160 15 -182 16 -32
61 -60 95 -60 20 0 21 -4 18 -112 l-3 -113 -45 -6 c-190 -28 -339 -176 -384
-381 l-6 -28 -313 0 c-295 0 -314 -1 -345 -20 -52 -32 -64 -74 -60 -206 3
-125 16 -155 76 -184 l31 -15 3 -630 3 -630 23 -43 c13 -24 41 -63 63 -87 l40
-44 -338 -3 c-329 -4 -393 -10 -393 -37 0 -30 126 -31 2219 -32 1418 0 2136 4
2176 11 33 5 63 10 68 10 4 0 7 6 7 14 0 21 -151 36 -369 36 l-193 0 31 39
c66 83 66 82 66 446 0 314 -1 332 -21 376 -30 63 -79 116 -138 147 -43 22 -64
27 -131 27 -67 0 -88 -5 -130 -27 -97 -51 -151 -135 -163 -254 l-7 -65 -77 63
-77 63 0 525 c-1 572 -2 589 -59 694 -36 68 -125 155 -193 189 -30 15 -84 33
-120 41 l-64 13 -3 111 c-3 108 -2 112 18 112 34 0 79 28 95 60 11 22 15 65
15 182 0 169 -5 189 -59 225 l-34 23 -622 0 -622 0 -34 -23z m135 -159 c4 -66
11 -128 15 -136 8 -14 13 27 24 213 l2 40 57 3 56 3 7 -98 c4 -54 11 -118 14
-143 l7 -45 7 55 c3 30 9 95 13 143 l6 88 57 -3 56 -3 2 -40 c11 -186 16 -227
24 -213 4 8 11 70 15 136 l7 122 57 0 57 0 7 -107 c4 -60 11 -124 16 -143 l8
-35 2 35 c1 19 5 82 9 140 l6 105 59 0 60 0 3 -55 c2 -30 6 -93 10 -140 5 -72
7 -80 14 -50 4 19 11 83 15 143 l7 107 57 0 57 0 7 -122 c4 -68 11 -127 15
-131 5 -5 12 33 15 85 3 51 7 109 9 128 l2 35 56 3 56 3 7 -93 c4 -51 10 -115
13 -143 7 -49 7 -50 14 -16 4 18 10 82 14 141 l7 107 55 -1 c86 -3 93 -16 93
-187 0 -126 -2 -141 -20 -159 -20 -20 -33 -20 -639 -20 l-620 0 -15 22 c-13
18 -16 52 -16 164 0 142 0 143 26 163 16 13 41 21 64 21 l37 0 7 -122z m824
-323 c8 -3 12 -33 12 -105 l0 -100 -420 0 -420 0 0 108 0 107 407 -3 c225 -1
414 -5 421 -7z m123 -301 c70 -37 137 -108 179 -190 l35 -69 5 -290 5 -290
155 -5 155 -5 3 -241 2 -240 -82 0 c-72 1 -91 -3 -140 -27 -65 -32 -144 -122
-154 -176 -5 -22 -13 -31 -28 -33 -11 -1 -30 -2 -41 -3 -11 -1 -33 -7 -48 -13
-16 -7 -33 -9 -39 -6 -7 5 -8 2 -3 -6 6 -10 4 -12 -9 -7 -10 4 -15 3 -11 -3 9
-14 -8 -12 -25 3 -12 10 -12 9 -2 -4 10 -14 7 -20 -21 -39 -19 -13 -42 -36
-53 -51 -10 -15 -21 -26 -25 -23 -4 2 -10 -3 -13 -12 -3 -8 -2 -12 4 -9 5 3 1
-14 -10 -37 -21 -48 -41 -173 -29 -185 4 -5 9 -21 11 -38 2 -16 5 -32 8 -35 3
-3 16 -26 30 -52 13 -26 31 -50 38 -53 8 -3 12 -12 9 -20 -4 -9 -1 -12 7 -9 8
3 17 1 21 -5 4 -8 -149 -11 -519 -11 -502 0 -528 1 -578 20 -29 11 -63 28 -76
38 -21 16 -22 21 -11 45 7 16 18 26 25 23 8 -3 11 0 7 9 -3 8 0 29 6 46 8 22
11 224 11 643 l1 612 32 13 c18 8 36 13 42 11 5 -1 7 2 2 6 -4 4 0 15 8 24 12
13 16 42 16 121 1 189 2 184 -33 218 -32 31 -32 31 -140 31 -125 0 -123 -1
-87 95 40 106 133 196 242 235 48 17 94 19 559 20 l507 0 52 -26z m-1175 -408
c10 -14 14 -50 14 -128 0 -163 47 -148 -474 -148 -382 0 -436 2 -450 16 -9 8
-16 23 -17 32 0 9 0 61 0 116 0 151 -48 137 474 134 421 -3 439 -4 453 -22z
m-774 -953 c3 -611 3 -619 25 -665 12 -26 43 -71 70 -99 l48 -52 -41 21 c-50
25 -99 74 -127 127 -22 40 -22 46 -25 663 l-3 622 25 0 25 0 3 -617z m301 496
c21 -6 47 -19 58 -30 10 -10 19 -16 19 -11 0 4 5 -1 11 -11 13 -22 6 -32 -33
-51 -38 -19 -234 -23 -222 -5 4 7 0 9 -13 5 -10 -3 -27 0 -37 7 -14 10 -15 18
-7 39 21 56 130 83 224 57z m375 -264 c2 -2 4 -449 2 -545 0 -6 -70 -10 -190
-10 -189 0 -191 0 -215 25 l-25 24 0 229 c0 215 1 231 20 255 11 14 30 27 43
30 23 4 360 -3 365 -8z m2392 -96 c41 -18 59 -34 64 -59 1 -3 4 -10 8 -16 4
-6 8 -97 9 -202 l2 -192 39 0 39 0 -3 -173 c-3 -170 -4 -174 -31 -215 -39 -59
-96 -94 -163 -100 l-54 -5 31 34 c51 54 72 113 73 199 0 61 -5 84 -25 122 -27
51 -93 125 -163 183 -26 21 -43 42 -39 49 3 6 3 8 -2 4 -11 -10 -47 11 -40 23
4 5 11 6 17 3 7 -4 8 -2 4 5 -6 9 -11 9 -23 -1 -29 -23 -43 16 -39 107 5 111
44 182 121 222 71 38 110 40 175 12z m-570 -189 c40 -21 240 -186 240 -199 0
-4 -21 -33 -47 -63 -27 -31 -91 -106 -143 -167 -52 -61 -98 -111 -101 -111 -3
0 -8 30 -11 68 -11 145 -102 257 -250 305 -26 9 -1 74 49 124 71 71 175 88
263 43z m-308 -236 c47 -16 131 -80 126 -95 -2 -5 -107 -70 -233 -144 l-230
-134 -12 32 c-6 18 -12 55 -12 82 -1 188 183 320 361 259z m178 -249 c-3 -105
-25 -151 -108 -226 -24 -21 -91 -48 -127 -50 -61 -4 -106 1 -100 11 3 6 -1 7
-9 4 -18 -7 -91 33 -123 68 l-23 24 237 137 c269 155 255 153 253 32z m176
-227 c35 -28 64 -53 64 -55 0 -2 -54 -3 -119 -3 l-120 0 52 54 c29 30 54 54
56 55 2 1 32 -22 67 -51z m-1866 -53 c0 -3 -14 -5 -31 -5 -27 0 -30 2 -19 15
9 11 17 12 31 4 10 -5 19 -12 19 -14z"/>
<path d="M2366 3338 c10 -14 21 -24 23 -22 3 3 -6 15 -18 27 l-24 22 19 -27z"/>
<path d="M2446 1342 c-2 -4 4 -8 14 -8 10 0 16 4 14 8 -3 4 -9 8 -14 8 -5 0
-11 -4 -14 -8z"/>
<path d="M1759 2608 c-8 -27 -5 -36 9 -30 10 4 12 7 4 10 -7 2 -10 8 -6 13 3
5 3 9 0 9 -3 0 -6 -1 -7 -2z"/>
<path d="M1911 2591 c-9 -6 -5 -8 13 -8 14 0 26 3 26 8 0 11 -21 11 -39 0z"/>
<path d="M4562 1813 c12 -12 26 -23 31 -23 6 0 0 8 -11 19 -12 10 -19 20 -17
23 3 2 -2 5 -10 5 -12 0 -10 -6 7 -24z"/>
<path d="M4595 1820 c4 -6 11 -8 16 -5 14 9 11 15 -7 15 -8 0 -12 -5 -9 -10z"/>
<path d="M3906 1423 c-6 -14 -5 -15 5 -6 7 7 10 15 7 18 -3 3 -9 -2 -12 -12z"/>
</g>
</svg>
